Genre:Drama | Thriller
Language:English  http://www.imdb.http://thepiratebay.org/uploadcom/title/tt1450140/
Source:DVD5

General
Complete name :Unrequited.2010.R5.H264.Feel-Free
Format : MPEG-4
Format profile : Base Media
Codec ID : isom
File size : 1.26 GiB
Duration : 1h 42mn
Overall bit rate : 1 759 Kbps
Video #1
Codec ID : avc1
Codec ID/Info : Advanced Video Coding
Duration : 1h 42mn
Bit rate mode : Variable
Bit rate : 1 523 Kbps
Width : 688 pixels
Height : 288 pixels
Display aspect ratio : 2.35:1
Frame rate mode : Constant
Frame rate : 25.000 fps
Resolution : 24 bits
Colorimetry : 4:2:0
Scan type : Progressive
Bits/(Pixel*Frame) : 0.307
Stream size : 1.09 GiB (87%)
Audio #2
ID : 2
Format : AAC
Format/Info : Advanced Audio Codec
Format version : Version 4
Format profile : LC
Format settings, SBR : No
Codec ID : 40
Duration : 1h 42mn
Bit rate mode : Variable
Bit rate : 256 Kbps
Channel(s) : 6 channels
Channel positions : Front: L C R, Rear: L R, LFE
Sampling rate : 48.0 KHz
Resolution : 16 bits
Stream size : 170 MiB (13%)

Plot:
UNREQUITED is a psychological thriller and tells the story of Ben Jacobs, a troubled young man who, on his 18th birthday, has to leave the group home for "troubled teens" where he has been living for the past several months and move back in with his alcoholic mother. Upon his return, Ben soon discovers that his girlfriend, Jessica Morgan, has moved on with her life and is now dating an older college guy. Desperate for love and unable to cope with losing Jessica, Ben's troubled past catches up with him as he kidnaps her in an attempt to regain her affection. Spiraling out of control and on a very dangerous path, Ben must ultimately decide whether to let her go, or hold on to the one person he loves, even if it means destroying them both in the process